{
  "accessors": [
    {
      "bufferView": 2,
      "componentType": 5126,
      "count": 20242,
      "max": [
        49.52412033081055,
        -21.304317474365234,
        46.150001525878906
      ],
      "min": [
        20.400650024414063,
        -22.68746566772461,
        24.080209732055664
      ],
      "type": "VEC3"
    },
    {
      "bufferView": 2,
      "byteOffset": 242904,
      "componentType": 5126,
      "count": 20242,
      "max": [
        1.0,
        1.0,
        1.0
      ],
      "min": [
        -1.0,
        -1.0,
        -1.0
      ],
      "type": "VEC3"
    },
    {
      "bufferView": 3,
      "componentType": 5126,
      "count": 20242,
      "max": [
        0.9999005794525146,
        1.0,
        1.0,
        1.0
      ],
      "min": [
        -1.0,
        -1.0,
        -0.9998925924301147,
        -1.0
      ],
      "type": "VEC4"
    },
    {
      "bufferView": 1,
      "componentType": 5126,
      "count": 20242,
      "max": [
        0.9941110014915466,
        0.8968420028686523
      ],
      "min": [
        0.005888000130653381,
        0.005865999963134527
      ],
      "type": "VEC2"
    },
    {
      "bufferView": 0,
      "componentType": 5125,
      "count": 100944,
      "type": "SCALAR"
    },
    {
      "bufferView": 2,
      "byteOffset": 485808,
      "componentType": 5126,
      "count": 491,
      "max": [
        72.99627685546875,
        22.349870681762695,
        57.999996185302734
      ],
      "min": [
        -72.99625396728516,
        -20.54987335205078,
        0.0
      ],
      "type": "VEC3"
    },
    {
      "bufferView": 2,
      "byteOffset": 491700,
      "componentType": 5126,
      "count": 491,
      "max": [
        1.0,
        1.0,
        1.0
      ],
      "min": [
        -1.0,
        -1.0,
        -1.0
      ],
      "type": "VEC3"
    },
    {
      "bufferView": 3,
      "byteOffset": 323872,
      "componentType": 5126,
      "count": 491,
      "max": [
        1.0,
        1.0,
        1.0,
        1.0
      ],
      "min": [
        -1.0,
        -1.0,
        -1.0,
        1.0
      ],
      "type": "VEC4"
    },
    {
      "bufferView": 1,
      "byteOffset": 161936,
      "componentType": 5126,
      "count": 491,
      "max": [
        0.9456130266189575,
        0.610588014125824
      ],
      "min": [
        0.05240299925208092,
        0.27163198590278625
      ],
      "type": "VEC2"
    },
    {
      "bufferView": 0,
      "byteOffset": 403776,
      "componentType": 5125,
      "count": 1161,
      "type": "SCALAR"
    },
    {
      "bufferView": 2,
      "byteOffset": 497592,
      "componentType": 5126,
      "count": 132,
      "max": [
        74.01292419433594,
        22.649869918823242,
        59.999996185302734
      ],
      "min": [
        -73.9556884765625,
        -26.641963958740234,
        57.999996185302734
      ],
      "type": "VEC3"
    },
    {
      "bufferView": 2,
      "byteOffset": 499176,
      "componentType": 5126,
      "count": 132,
      "max": [
        1.0,
        1.0,
        1.0
      ],
      "min": [
        -1.0,
        -1.0,
        -1.0
      ],
      "type": "VEC3"
    },
    {
      "bufferView": 3,
      "byteOffset": 331728,
      "componentType": 5126,
      "count": 132,
      "max": [
        1.0,
        1.0,
        0.4796242117881775,
        1.0
      ],
      "min": [
        -0.9982969164848328,
        -1.0,
        -1.0,
        1.0
      ],
      "type": "VEC4"
    },
    {
      "bufferView": 1,
      "byteOffset": 165864,
      "componentType": 5126,
      "count": 132,
      "max": [
        1.344670057296753,
        1.5242619514465332
      ],
      "min": [
        -0.33226799964904785,
        -0.5794219970703125
      ],
      "type": "VEC2"
    },
    {
      "bufferView": 0,
      "byteOffset": 408420,
      "componentType": 5125,
      "count": 258,
      "type": "SCALAR"
    },
    {
      "bufferView": 2,
      "byteOffset": 500760,
      "componentType": 5126,
      "count": 1427,
      "max": [
        72.99627685546875,
        22.349870681762695,
        57.999996185302734
      ],
      "min": [
        -72.99625396728516,
        -25.34613037109375,
        0.0
      ],
      "type": "VEC3"
    },
    {
      "bufferView": 2,
      "byteOffset": 517884,
      "componentType": 5126,
      "count": 1427,
      "max": [
        1.0,
        1.0,
        1.0
      ],
      "min": [
        -1.0,
        -1.0,
        -1.0
      ],
      "type": "VEC3"
    },
    {
      "bufferView": 3,
      "byteOffset": 333840,
      "componentType": 5126,
      "count": 1427,
      "max": [
        1.0,
        1.0,
        1.0,
        1.0
      ],
      "min": [
        -1.0,
        -1.0,
        -1.0,
        1.0
      ],
      "type": "VEC4"
    },
    {
      "bufferView": 1,
      "byteOffset": 166920,
      "componentType": 5126,
      "count": 1427,
      "max": [
        0.9973049759864807,
        0.9946960210800171
      ],
      "min": [
        0.0026950000319629908,
        0.002693000016734004
      ],
      "type": "VEC2"
    },
    {
      "bufferView": 0,
      "byteOffset": 409452,
      "componentType": 5125,
      "count": 3069,
      "type": "SCALAR"
    }
  ],
  "asset": {
    "extras": {
      "author": "Interiors3D (https://sketchfab.com/Interiors3D)",
      "license": "CC-BY-4.0 (http://creativecommons.org/licenses/by/4.0/)",
      "source": "https://sketchfab.com/3d-models/mfb100-86dd36e9886f44949320ebb2520aefc1",
      "title": "MFB100"
    },
    "generator": "Sketchfab-10.42.0",
    "version": "2.0"
  },
  "bufferViews": [
    {
      "buffer": 0,
      "byteLength": 421728,
      "name": "floatBufferViews",
      "target": 34963
    },
    {
      "buffer": 0,
      "byteLength": 178336,
      "byteOffset": 421728,
      "byteStride": 8,
      "name": "floatBufferViews",
      "target": 34962
    },
    {
      "buffer": 0,
      "byteLength": 535008,
      "byteOffset": 600064,
      "byteStride": 12,
      "name": "floatBufferViews",
      "target": 34962
    },
    {
      "buffer": 0,
      "byteLength": 356672,
      "byteOffset": 1135072,
      "byteStride": 16,
      "name": "floatBufferViews",
      "target": 34962
    }
  ],
  "buffers": [
    {
      "byteLength": 1491744,
      "uri": "scene.bin"
    }
  ],
  "images": [
    {
      "uri": "textures/Metal_baseColor.jpeg"
    },
    {
      "uri": "textures/Metal_metallicRoughness.png"
    },
    {
      "uri": "textures/Metal_normal.png"
    },
    {
      "uri": "textures/back_baseColor.jpeg"
    },
    {
      "uri": "textures/back_metallicRoughness.png"
    },
    {
      "uri": "textures/back_normal.png"
    },
    {
      "uri": "textures/paint_baseColor.jpeg"
    },
    {
      "uri": "textures/paint_metallicRoughness.png"
    },
    {
      "uri": "textures/paint_normal.png"
    },
    {
      "uri": "textures/material_baseColor.jpeg"
    },
    {
      "uri": "textures/material_metallicRoughness.png"
    },
    {
      "uri": "textures/material_normal.png"
    }
  ],
  "materials": [
    {
      "doubleSided": true,
      "name": "Metal",
      "normalTexture": {
        "index": 2
      },
      "pbrMetallicRoughness": {
        "baseColorTexture": {
          "index": 0
        },
        "metallicRoughnessTexture": {
          "index": 1
        }
      }
    },
    {
      "doubleSided": true,
      "name": "back",
      "normalTexture": {
        "index": 5
      },
      "pbrMetallicRoughness": {
        "baseColorTexture": {
          "index": 3
        },
        "metallicFactor": 0.0,
        "metallicRoughnessTexture": {
          "index": 4
        }
      }
    },
    {
      "doubleSided": true,
      "name": "paint",
      "normalTexture": {
        "index": 8
      },
      "pbrMetallicRoughness": {
        "baseColorTexture": {
          "index": 6
        },
        "metallicFactor": 0.0,
        "metallicRoughnessTexture": {
          "index": 7
        }
      }
    },
    {
      "doubleSided": true,
      "name": "material",
      "normalTexture": {
        "index": 11
      },
      "pbrMetallicRoughness": {
        "baseColorTexture": {
          "index": 9
        },
        "metallicFactor": 0.0,
        "metallicRoughnessTexture": {
          "index": 10
        }
      }
    }
  ],
  "meshes": [
    {
      "name": "Object_0",
      "primitives": [
        {
          "attributes": {
            "NORMAL": 1,
            "POSITION": 0,
            "TANGENT": 2,
            "TEXCOORD_0": 3
          },
          "indices": 4,
          "material": 0,
          "mode": 4
        }
      ]
    },
    {
      "name": "Object_1",
      "primitives": [
        {
          "attributes": {
            "NORMAL": 6,
            "POSITION": 5,
            "TANGENT": 7,
            "TEXCOORD_0": 8
          },
          "indices": 9,
          "material": 1,
          "mode": 4
        }
      ]
    },
    {
      "name": "Object_2",
      "primitives": [
        {
          "attributes": {
            "NORMAL": 11,
            "POSITION": 10,
            "TANGENT": 12,
            "TEXCOORD_0": 13
          },
          "indices": 14,
          "material": 3,
          "mode": 4
        }
      ]
    },
    {
      "name": "Object_3",
      "primitives": [
        {
          "attributes": {
            "NORMAL": 16,
            "POSITION": 15,
            "TANGENT": 17,
            "TEXCOORD_0": 18
          },
          "indices": 19,
          "material": 2,
          "mode": 4
        }
      ]
    }
  ],
  "nodes": [
    {
      "children": [
        1
      ],
      "matrix": [
        1.0,
        0.0,
        0.0,
        0.0,
        0.0,
        2.220446049250313e-16,
        -1.0,
        0.0,
        0.0,
        1.0,
        2.220446049250313e-16,
        0.0,
        0.0,
        0.0,
        0.0,
        1.0
      ],
      "name": "Sketchfab_model"
    },
    {
      "children": [
        2,
        3,
        4,
        5
      ],
      "name": "W05 - MFB100 - Sketchfab - mesh.obj.cleaner.materialmerger.gles"
    },
    {
      "mesh": 0,
      "name": "Object_2"
    },
    {
      "mesh": 1,
      "name": "Object_3"
    },
    {
      "mesh": 2,
      "name": "Object_4"
    },
    {
      "mesh": 3,
      "name": "Object_5"
    }
  ],
  "samplers": [
    {
      "magFilter": 9729,
      "minFilter": 9987,
      "wrapS": 10497,
      "wrapT": 10497
    }
  ],
  "scene": 0,
  "scenes": [
    {
      "name": "Sketchfab_Scene",
      "nodes": [
        0
      ]
    }
  ],
  "textures": [
    {
      "sampler": 0,
      "source": 0
    },
    {
      "sampler": 0,
      "source": 1
    },
    {
      "sampler": 0,
      "source": 2
    },
    {
      "sampler": 0,
      "source": 3
    },
    {
      "sampler": 0,
      "source": 4
    },
    {
      "sampler": 0,
      "source": 5
    },
    {
      "sampler": 0,
      "source": 6
    },
    {
      "sampler": 0,
      "source": 7
    },
    {
      "sampler": 0,
      "source": 8
    },
    {
      "sampler": 0,
      "source": 9
    },
    {
      "sampler": 0,
      "source": 10
    },
    {
      "sampler": 0,
      "source": 11
    }
  ]
}
